<svg xmlns="http://www.w3.org/2000/svg" xmlns:xlink="http://www.w3.org/1999/xlink" width="500" zoomAndPan="magnify" viewBox="0 0 375 374.999991" height="500" preserveAspectRatio="xMidYMid meet" version="1.0"><defs><clipPath id="867e55d100"><path d="M 77 5.171875 L 317.984375 5.171875 L 317.984375 335 L 77 335 Z M 77 5.171875 " clip-rule="nonzero"/></clipPath></defs><g clip-path="url(#867e55d100)"><path fill="#000000" d="M 187.503906 5.304688 C 185.167969 5.339844 182.460938 5.648438 178.503906 6.1875 C 162.160156 8.402344 152.902344 10.527344 152.355469 12.140625 C 152.097656 12.902344 150.191406 13.511719 148.121094 13.507812 C 142.089844 13.5 131.246094 17.988281 127.261719 22.148438 C 124.355469 25.183594 123.460938 27.757812 121.96875 39.082031 C 121.683594 40.796875 121.488281 42.550781 121.351562 44.328125 C 121.335938 44.519531 121.320312 44.710938 121.308594 44.902344 C 120.417969 52.597656 120.03125 58.496094 120.425781 63.113281 C 120.421875 63.167969 120.429688 63.230469 120.425781 63.289062 C 120.382812 78.882812 136.457031 86.855469 149.929688 88.6875 C 153.429688 90.441406 156.488281 90.339844 159.367188 89.480469 C 162.339844 89.636719 163.863281 88.90625 167.171875 86.921875 C 169.492188 85.53125 171.734375 84.617188 174.09375 84.191406 C 176.476562 86.023438 179.640625 85.292969 182.339844 83.835938 C 187.472656 83.359375 190.410156 81.167969 191.957031 76.738281 L 193.101562 73.472656 C 198.476562 84.542969 199.78125 97.601562 202.144531 109.542969 C 202.492188 114.785156 202.511719 120 202.363281 125.242188 C 202.191406 128.628906 201.941406 132.535156 201.613281 137.542969 C 201.304688 142.269531 201.050781 146.832031 200.777344 151.390625 C 200.644531 153.597656 200.496094 155.914062 200.378906 157.917969 C 200.28125 159.582031 200.183594 161.234375 200.113281 162.898438 C 200.101562 163.238281 200.082031 163.574219 200.070312 163.914062 C 199.941406 166.328125 199.757812 169.621094 199.714844 170.835938 L 199.496094 177.230469 C 199.21875 177.441406 198.894531 177.773438 198.570312 178.332031 L 195.878906 175.15625 C 187.492188 165.25 181.835938 162.367188 167.523438 160.78125 C 154.816406 159.375 146.820312 162.800781 133.699219 175.335938 L 122.714844 185.828125 L 117.996094 183.402344 C 112.804688 180.714844 84.96875 171.542969 82.011719 171.542969 C 80.980469 171.542969 80.160156 172.113281 80.160156 172.777344 C 80.160156 173.441406 86.316406 175.027344 92.332031 176.789062 C 97.722656 178.386719 102.179688 180.546875 109.839844 183.492188 C 112.910156 184.609375 114.324219 185.097656 116.058594 185.742188 C 117.628906 188.207031 124.847656 195.917969 125.804688 210.300781 C 133.183594 176.71875 152.667969 162.09375 168.492188 164.046875 C 172.089844 164.753906 171.644531 164.679688 173.828125 165.191406 C 184.578125 167.8125 185.863281 171.890625 193.714844 177.144531 C 196.144531 180.625 196.90625 182.207031 197.597656 182.742188 C 201.007812 187.425781 199.546875 192.363281 207.210938 203.863281 C 214.664062 212.554688 219.136719 220.375 227.542969 224.324219 C 268.183594 237.367188 301.707031 207.195312 285.621094 209.816406 C 237.089844 217.730469 210.023438 124.6875 219.117188 85.246094 C 216.210938 67.964844 242.417969 104.84375 234.023438 86.746094 C 229.066406 74.195312 219.445312 64.003906 213.429688 52.175781 C 206.796875 39.460938 204.257812 53.082031 198.480469 59.582031 C 196.324219 68.207031 184.261719 58.125 186.660156 63.730469 C 188.3125 65.597656 189.726562 67.566406 190.984375 69.636719 C 190.335938 71.351562 188.828125 75.207031 186.042969 76.25 C 184.605469 77.292969 183.3125 77.929688 182.074219 78.367188 C 180.527344 71.929688 175.769531 62.980469 174.179688 56.054688 C 160.402344 42.019531 172.554688 68.117188 170.609375 75.414062 C 168.710938 90.648438 162.683594 70.792969 161.964844 65.667969 C 159.027344 56.542969 161.109375 29.292969 145.558594 41.726562 C 144.972656 46.070312 152.820312 62.199219 150.5 71.753906 C 151.140625 86.964844 145.960938 69.707031 145.78125 64.125 C 143.625 60.121094 144.433594 36.738281 135.019531 27.746094 C 133.371094 29.503906 131.15625 30.753906 129.464844 31.011719 C 129.425781 30.507812 129.394531 29.976562 129.289062 29.246094 C 128.800781 25.941406 129.382812 24.152344 131.535156 22.324219 C 135.574219 18.914062 143.289062 17.230469 147.941406 16.328125 C 150.160156 16.328125 152.328125 15.773438 152.75 15.09375 C 153.171875 14.410156 154.800781 13.519531 156.363281 13.109375 C 157.929688 12.699219 170.160156 9.507812 180.621094 8.476562 C 188.246094 7.726562 191.835938 8.152344 199.539062 10.640625 C 215.816406 15.898438 219.066406 18.097656 222.648438 26.46875 C 224.410156 30.585938 228.960938 40.386719 232.746094 48.25 C 236.53125 56.117188 239.625 62.941406 239.625 63.417969 C 239.625 63.898438 240.585938 65.414062 241.785156 66.769531 C 242.984375 68.128906 248.582031 76.226562 254.222656 84.761719 C 259.863281 93.296875 268.609375 106.316406 273.625 113.6875 C 278.644531 121.058594 283.519531 128.679688 284.472656 130.621094 C 285.429688 132.558594 287.796875 136.6875 289.722656 139.792969 C 298.628906 154.160156 305.523438 174.1875 307.320312 190.808594 C 308.03125 197.40625 309.832031 204.761719 311.507812 208.050781 C 314.566406 214.042969 315.429688 224.367188 313.007812 225.863281 C 312.382812 226.25 311.867188 227.234375 311.683594 228.246094 C 308.78125 232.042969 304.503906 239.660156 296.425781 242.621094 C 268.726562 253.882812 218.597656 248.851562 208.136719 242.753906 C 226.691406 259.90625 232.09375 261.054688 233.539062 276 C 216.953125 277.703125 149.695312 279.316406 138.277344 261.625 C 139.050781 247.523438 186.183594 248.972656 192.34375 214.3125 C 184.796875 223.097656 160.910156 262.382812 112.257812 227.9375 C 105.898438 223.433594 57 213.082031 99.691406 243.105469 C 93.042969 253.375 77.078125 252.484375 77.109375 264.492188 L 77.289062 334.117188 L 77.507812 333.808594 C 77.886719 337.378906 84.4375 331.777344 91.488281 318.066406 L 98.277344 304.882812 L 98.71875 304.882812 C 114.136719 305.90625 129.179688 309.957031 144.40625 312.335938 C 151.199219 312.695312 157.984375 312.566406 164.738281 311.980469 C 165.011719 311.964844 165.300781 311.917969 165.578125 311.898438 C 166.382812 311.820312 167.195312 311.761719 168 311.675781 C 168.394531 311.640625 168.796875 311.589844 169.191406 311.542969 C 173.261719 311.101562 177.601562 310.488281 182.464844 309.648438 C 205.597656 305.644531 236.273438 292.726562 257.4375 278.074219 C 264.84375 272.949219 275.785156 266.464844 281.734375 263.65625 C 296.230469 256.820312 311.398438 241.953125 314.855469 231.246094 C 318 221.507812 317.84375 215.640625 314.191406 207.390625 C 312.523438 203.621094 310.667969 195.765625 310.046875 189.929688 C 308.375 174.21875 301.289062 153.90625 292.539062 139.792969 C 290.617188 136.691406 288.246094 132.5625 287.292969 130.625 C 286.339844 128.683594 281.460938 121.0625 276.445312 113.691406 C 271.425781 106.320312 262.703125 93.300781 257.039062 84.765625 C 251.378906 76.226562 245.875 67.972656 244.824219 66.421875 C 243.769531 64.867188 239.292969 55.980469 234.902344 46.667969 C 221.390625 18.011719 220.980469 17.296875 214.96875 13.949219 C 211.886719 12.230469 205.023438 9.441406 199.710938 7.730469 C 194.191406 5.957031 191.382812 5.246094 187.492188 5.304688 Z M 130.039062 50.855469 L 131.238281 67.050781 C 129.253906 76.859375 126.429688 54.050781 130.039062 50.855469 Z M 130.039062 50.855469 " fill-opacity="1" fill-rule="nonzero"/></g></svg>