<svg xmlns="http://www.w3.org/2000/svg" xmlns:xlink="http://www.w3.org/1999/xlink" width="500" zoomAndPan="magnify" viewBox="0 0 375 374.999991" height="500" preserveAspectRatio="xMidYMid meet" version="1.0"><defs><clipPath id="4787b530dc"><path d="M 238 119 L 331.773438 119 L 331.773438 200 L 238 200 Z M 238 119 " clip-rule="nonzero"/></clipPath><clipPath id="ab97c968ed"><path d="M 239 120 L 331.773438 120 L 331.773438 199 L 239 199 Z M 239 120 " clip-rule="nonzero"/></clipPath><clipPath id="89544969ac"><path d="M 43.023438 166 L 217 166 L 217 314.386719 L 43.023438 314.386719 Z M 43.023438 166 " clip-rule="nonzero"/></clipPath><clipPath id="4057c89acb"><path d="M 43.023438 167 L 216 167 L 216 314.386719 L 43.023438 314.386719 Z M 43.023438 167 " clip-rule="nonzero"/></clipPath></defs><path stroke-linecap="butt" transform="matrix(0.610186, 0, 0, 0.611285, 31.160723, 33.684168)" fill="none" stroke-linejoin="miter" d="M 181.257842 52.750368 C 199.707647 44.564489 220.097178 50.175107 237.548312 58.769959 C 257.015993 68.943197 276.906189 83.742958 284.895556 106.977816 C 288.480528 116.46091 286.124689 127.522389 279.966219 134.95422 C 275.126506 139.555182 268.238237 138.270747 262.431862 137.618944 C 249.257088 134.474954 241.184498 121.445285 230.948122 112.907945 C 222.075315 104.223629 212.626351 94.817218 200.610292 92.414493 C 189.893785 90.446304 180.58566 98.331842 173.716596 106.511329 C 163.377792 120.691239 156.84802 137.727578 151.752238 154.936454 C 148.448942 169.934312 141.407032 184.254805 142.258463 200.089783 C 141.246988 185.481729 137.501972 171.263478 137.143475 156.585132 C 136.471293 137.663676 138.628678 118.633586 142.905038 100.331982 C 150.747165 80.720382 162.859251 61.313269 181.257842 52.750368 Z M 181.257842 52.750368 " stroke="#000000" stroke-width="0.1" stroke-opacity="1" stroke-miterlimit="10"/><path fill="#000000" d="M 141.761719 65.929688 C 153.019531 60.925781 165.460938 64.355469 176.109375 69.609375 C 187.988281 75.828125 200.125 84.875 205 99.078125 C 207.1875 104.875 205.75 111.636719 201.992188 116.179688 C 199.039062 118.992188 194.835938 118.207031 191.292969 117.808594 C 183.253906 115.886719 178.328125 107.921875 172.082031 102.703125 C 166.667969 97.394531 160.902344 91.644531 153.570312 90.175781 C 147.03125 88.972656 141.351562 93.792969 137.160156 98.792969 C 130.851562 107.460938 126.867188 117.875 123.757812 128.394531 C 121.742188 137.5625 117.445312 146.316406 117.964844 155.996094 C 117.347656 147.066406 115.0625 138.375 114.84375 129.402344 C 114.433594 117.835938 115.75 106.203125 118.359375 95.015625 C 123.144531 83.027344 130.535156 71.164062 141.761719 65.929688 Z M 141.761719 65.929688 " fill-opacity="1" fill-rule="nonzero"/><path stroke-linecap="butt" transform="matrix(0.610186, 0, 0, 0.611285, 31.160723, 33.684168)" fill="none" stroke-linejoin="miter" d="M 349.450668 65.294379 C 362.80469 63.569018 376.843699 69.396903 385.80613 80.573407 C 391.88778 88.893479 395.972088 99.379839 395.901669 110.204879 C 394.723749 123.375133 388.763732 136.385631 378.821835 143.951657 C 367.100256 153.191922 351.076709 155.11538 337.88273 148.712375 C 318.287014 140.430643 306.879119 112.383946 316.949051 91.200351 C 322.614588 76.784003 335.680532 67.409543 349.450668 65.294379 Z M 349.450668 65.294379 " stroke="#000000" stroke-width="0.1" stroke-opacity="1" stroke-miterlimit="10"/><path fill="#000000" d="M 244.390625 73.597656 C 252.539062 72.542969 261.105469 76.105469 266.574219 82.9375 C 270.285156 88.023438 272.777344 94.433594 272.734375 101.050781 C 272.015625 109.101562 268.378906 117.054688 262.3125 121.679688 C 255.160156 127.328125 245.382812 128.503906 237.332031 124.589844 C 225.375 119.527344 218.414062 102.382812 224.558594 89.433594 C 228.015625 80.621094 235.988281 74.890625 244.390625 73.597656 Z M 244.390625 73.597656 " fill-opacity="1" fill-rule="nonzero"/><g clip-path="url(#4787b530dc)"><path stroke-linecap="butt" transform="matrix(0.610186, 0, 0, 0.611285, 31.160723, 33.684168)" fill="none" stroke-linejoin="miter" d="M 488.47078 141.830102 C 489.258194 141.778981 490.058411 141.75981 490.865029 141.77259 C 490.525737 149.587835 492.356634 157.3903 491.19792 165.167204 C 489.347818 178.541944 484.501703 191.105127 479.252279 203.214603 C 467.729153 231.798079 445.937642 255.403569 419.511273 266.51617 C 407.379982 271.270498 392.988878 270.906255 382.054712 262.784279 C 364.379518 249.952708 350.474946 230.379449 344.393296 207.783614 C 340.545852 195.584674 340.411416 180.931889 347.030811 169.870409 C 350.340509 165.026619 354.808921 159.614098 360.788143 159.978341 C 366.965819 160.610973 372.490518 164.739059 376.22273 170.113238 C 385.005913 182.932029 386.843211 199.610516 394.083575 213.298378 C 400.14602 222.129668 409.940677 232.616027 420.772415 227.452726 C 433.819155 221.31172 444.804535 210.876482 455.418614 200.645732 C 468.836654 187.814161 478.176787 170.688358 485.628409 153.051337 C 487.126415 149.511153 488.1763 145.74092 488.47078 141.830102 Z M 488.47078 141.830102 " stroke="#000000" stroke-width="0.1" stroke-opacity="1" stroke-miterlimit="10"/></g><g clip-path="url(#ab97c968ed)"><path fill="#000000" d="M 329.21875 120.382812 C 329.699219 120.351562 330.1875 120.339844 330.679688 120.347656 C 330.472656 125.125 331.589844 129.894531 330.882812 134.648438 C 329.753906 142.824219 326.796875 150.503906 323.59375 157.90625 C 316.5625 175.378906 303.265625 189.808594 287.140625 196.601562 C 279.738281 199.507812 270.957031 199.285156 264.285156 194.320312 C 253.5 186.476562 245.015625 174.511719 241.304688 160.699219 C 238.957031 153.242188 238.875 144.285156 242.914062 137.523438 C 244.933594 134.5625 247.660156 131.253906 251.308594 131.476562 C 255.078125 131.863281 258.449219 134.386719 260.726562 137.671875 C 266.085938 145.507812 267.207031 155.703125 271.625 164.070312 C 275.324219 169.46875 281.300781 175.878906 287.910156 172.722656 C 295.871094 168.96875 302.574219 162.589844 309.050781 156.335938 C 317.238281 148.492188 322.9375 138.023438 327.484375 127.242188 C 328.398438 125.078125 329.039062 122.773438 329.21875 120.382812 Z M 329.21875 120.382812 " fill-opacity="1" fill-rule="nonzero"/></g><g clip-path="url(#89544969ac)"><path stroke-linecap="butt" transform="matrix(0.610186, 0, 0, 0.611285, 31.160723, 33.684168)" fill="none" stroke-linejoin="miter" d="M 162.398326 223.810298 C 170.163632 216.49988 181.629143 217.209195 190.655591 220.864404 C 199.726852 225.152245 209.284645 228.468771 217.56209 234.565046 C 230.423179 243.728629 242.708112 253.99772 253.706295 265.800465 C 266.125664 276.964188 277.661594 289.418736 287.545875 303.387768 C 294.837453 312.928374 302.455519 324.079316 301.879363 337.287911 C 296.489101 356.535268 281.656277 370.612934 266.22169 380.032125 C 245.755338 391.604823 222.920344 396.193004 201.04561 403.292544 C 191.583843 406.692144 181.65475 407.925457 171.815281 409.107649 C 160.676259 409.772232 149.47322 412.328322 138.3406 410.136475 C 145.472134 404.372492 154.108077 401.810012 161.950204 397.534951 C 184.465112 386.729081 205.661262 372.875073 227.600013 360.733646 C 236.895335 355.7301 245.992203 349.352656 251.305644 339.166637 C 251.023968 336.930059 250.748693 334.69987 250.47982 332.469682 C 244.231725 325.440434 236.524034 320.417717 228.573077 316.161828 C 219.303363 324.679997 208.612463 331.166076 200.066144 340.67473 C 176.629386 360.075453 150.715157 375.284188 125.754786 392.071309 C 92.145669 413.069588 60.354645 437.55054 26.105354 457.309115 C 24.114414 458.107893 22.065858 458.721355 19.978892 459.16867 C 33.128059 443.23784 48.441013 429.677783 61.385324 413.529684 C 80.071993 391.770968 98.758662 369.999472 118.25195 349.122608 C 138.839935 327.082722 158.851764 304.391033 177.935341 280.728031 C 169.888358 272.452689 159.491938 264.835541 157.046474 252.144555 C 154.722644 242.552827 156.092615 231.216568 162.398326 223.810298 Z M 162.398326 223.810298 " stroke="#000000" stroke-width="0.1" stroke-opacity="1" stroke-miterlimit="10"/></g><g clip-path="url(#4057c89acb)"><path fill="#000000" d="M 130.253906 170.496094 C 134.992188 166.027344 141.988281 166.460938 147.496094 168.695312 C 153.03125 171.316406 158.863281 173.34375 163.914062 177.070312 C 171.761719 182.671875 179.257812 188.949219 185.96875 196.164062 C 193.546875 202.988281 200.585938 210.601562 206.617188 219.140625 C 211.066406 224.972656 215.714844 231.789062 215.363281 239.863281 C 212.074219 251.628906 203.023438 260.234375 193.605469 265.992188 C 181.117188 273.066406 167.183594 275.871094 153.835938 280.210938 C 148.0625 282.289062 142.003906 283.042969 136 283.765625 C 129.203125 284.171875 122.367188 285.734375 115.574219 284.394531 C 119.925781 280.871094 125.195312 279.304688 129.980469 276.691406 C 143.71875 270.085938 156.652344 261.617188 170.039062 254.195312 C 175.710938 251.136719 181.261719 247.238281 184.503906 241.011719 C 184.332031 239.644531 184.164062 238.28125 184 236.917969 C 180.1875 232.621094 175.484375 229.550781 170.632812 226.949219 C 164.976562 232.15625 158.453125 236.121094 153.238281 241.933594 C 138.9375 253.792969 123.125 263.089844 107.894531 273.351562 C 87.386719 286.1875 67.988281 301.152344 47.089844 313.230469 C 45.875 313.71875 44.625 314.09375 43.351562 314.367188 C 51.375 304.628906 60.71875 296.339844 68.617188 286.46875 C 80.019531 273.167969 91.421875 259.859375 103.316406 247.097656 C 115.878906 233.625 128.089844 219.753906 139.734375 205.289062 C 134.824219 200.230469 128.480469 195.574219 126.988281 187.816406 C 125.570312 181.953125 126.40625 175.023438 130.253906 170.496094 Z M 130.253906 170.496094 " fill-opacity="1" fill-rule="nonzero"/></g></svg>