<svg xmlns="http://www.w3.org/2000/svg" xmlns:xlink="http://www.w3.org/1999/xlink" width="500" zoomAndPan="magnify" viewBox="0 0 375 374.999991" height="500" preserveAspectRatio="xMidYMid meet" version="1.0"><defs><clipPath id="c1aa86c667"><path d="M 76 93.382812 L 156 93.382812 L 156 220 L 76 220 Z M 76 93.382812 " clip-rule="nonzero"/></clipPath><clipPath id="1c7a2c1d44"><path d="M 221 155 L 301 155 L 301 281.632812 L 221 281.632812 Z M 221 155 " clip-rule="nonzero"/></clipPath><clipPath id="1870e9e979"><path d="M 259 187 L 313.996094 187 L 313.996094 273 L 259 273 Z M 259 187 " clip-rule="nonzero"/></clipPath></defs><path fill="#ffffff" d="M 72.632812 129.285156 L 310.109375 230.914062 L 303.804688 245.625 L 66.324219 143.996094 Z M 72.632812 129.285156 " fill-opacity="1" fill-rule="nonzero"/><path fill="#050607" d="M 303.808594 248.328125 C 303.445312 248.328125 303.082031 248.253906 302.742188 248.109375 L 65.261719 146.484375 C 63.886719 145.898438 63.25 144.308594 63.835938 142.933594 L 70.144531 128.222656 C 70.425781 127.5625 70.957031 127.042969 71.625 126.777344 C 72.292969 126.507812 73.039062 126.519531 73.699219 126.800781 L 311.179688 228.425781 C 312.554688 229.011719 313.191406 230.601562 312.605469 231.976562 L 306.296875 246.6875 C 306.015625 247.347656 305.480469 247.867188 304.816406 248.132812 C 304.492188 248.261719 304.148438 248.328125 303.808594 248.328125 Z M 69.882812 142.578125 L 302.382812 242.070312 L 306.558594 232.332031 L 74.054688 132.839844 Z M 69.882812 142.578125 " fill-opacity="1" fill-rule="nonzero"/><path fill="#ffffff" d="M 111.390625 209.832031 C 108.96875 215.480469 102.417969 218.101562 96.761719 215.679688 L 85.882812 211.023438 C 80.226562 208.605469 77.605469 202.058594 80.027344 196.40625 L 120.054688 103.03125 C 122.476562 97.378906 129.027344 94.761719 134.683594 97.179688 L 145.5625 101.835938 C 151.21875 104.257812 153.84375 110.804688 151.417969 116.453125 Z M 111.390625 209.832031 " fill-opacity="1" fill-rule="nonzero"/><g clip-path="url(#c1aa86c667)"><path fill="#050607" d="M 101.144531 219.289062 C 99.265625 219.289062 97.433594 218.914062 95.695312 218.167969 L 84.816406 213.511719 C 77.792969 210.507812 74.53125 202.355469 77.535156 195.34375 L 117.5625 101.96875 C 119.75 96.867188 124.75 93.574219 130.300781 93.574219 C 132.175781 93.574219 134.011719 93.953125 135.746094 94.695312 L 146.628906 99.351562 C 153.648438 102.355469 156.914062 110.507812 153.90625 117.519531 L 113.878906 210.898438 C 111.695312 215.996094 106.695312 219.289062 101.144531 219.289062 Z M 130.300781 98.988281 C 126.917969 98.988281 123.871094 100.992188 122.542969 104.097656 L 82.515625 197.472656 C 80.683594 201.746094 82.671875 206.707031 86.945312 208.539062 L 97.828125 213.195312 C 98.890625 213.648438 100.003906 213.878906 101.144531 213.878906 C 104.527344 213.878906 107.570312 211.871094 108.902344 208.765625 L 148.929688 115.390625 C 150.761719 111.117188 148.773438 106.15625 144.496094 104.324219 L 133.617188 99.667969 C 132.554688 99.214844 131.4375 98.988281 130.300781 98.988281 Z M 130.300781 98.988281 " fill-opacity="1" fill-rule="nonzero"/></g><path fill="#ffffff" d="M 86.773438 180.671875 C 85.167969 184.417969 80.824219 186.152344 77.074219 184.550781 L 69.859375 181.464844 C 66.109375 179.859375 64.371094 175.519531 65.980469 171.773438 L 92.511719 109.871094 C 94.117188 106.125 98.460938 104.390625 102.210938 105.992188 L 109.421875 109.082031 C 113.171875 110.683594 114.910156 115.023438 113.304688 118.769531 Z M 86.773438 180.671875 " fill-opacity="1" fill-rule="nonzero"/><path fill="#050607" d="M 79.976562 187.855469 C 78.609375 187.855469 77.273438 187.578125 76.007812 187.039062 L 68.792969 183.949219 C 63.675781 181.761719 61.296875 175.820312 63.488281 170.707031 L 90.023438 108.804688 C 91.617188 105.089844 95.261719 102.691406 99.304688 102.691406 C 100.675781 102.691406 102.011719 102.964844 103.277344 103.507812 L 110.492188 106.59375 C 112.96875 107.652344 114.886719 109.617188 115.886719 112.117188 C 116.890625 114.621094 116.859375 117.359375 115.796875 119.835938 L 89.261719 181.738281 C 87.667969 185.453125 84.023438 187.855469 79.976562 187.855469 Z M 99.304688 108.101562 C 97.429688 108.101562 95.742188 109.214844 95.003906 110.9375 L 68.46875 172.839844 C 67.453125 175.207031 68.558594 177.960938 70.925781 178.976562 L 78.140625 182.0625 C 78.730469 182.316406 79.347656 182.441406 79.980469 182.441406 C 81.855469 182.441406 83.542969 181.328125 84.28125 179.605469 L 110.816406 117.707031 C 111.308594 116.558594 111.324219 115.289062 110.859375 114.128906 C 110.394531 112.96875 109.507812 112.0625 108.359375 111.570312 L 101.144531 108.480469 C 100.554688 108.230469 99.9375 108.101562 99.304688 108.101562 Z M 99.304688 108.101562 " fill-opacity="1" fill-rule="nonzero"/><path fill="#ffffff" d="M 225.023438 258.457031 C 222.601562 264.109375 225.222656 270.652344 230.878906 273.070312 L 241.757812 277.730469 C 247.414062 280.148438 253.964844 277.53125 256.386719 271.878906 L 296.414062 178.5 C 298.835938 172.851562 296.214844 166.304688 290.558594 163.886719 L 279.675781 159.226562 C 274.019531 156.808594 267.46875 159.429688 265.046875 165.082031 Z M 225.023438 258.457031 " fill-opacity="1" fill-rule="nonzero"/><g clip-path="url(#1c7a2c1d44)"><path fill="#050607" d="M 246.140625 281.335938 C 244.261719 281.335938 242.429688 280.960938 240.691406 280.21875 L 229.8125 275.558594 C 226.410156 274.105469 223.78125 271.414062 222.40625 267.980469 C 221.03125 264.550781 221.074219 260.789062 222.53125 257.390625 L 262.558594 164.015625 C 264.746094 158.914062 269.746094 155.621094 275.296875 155.621094 C 277.171875 155.621094 279.007812 156 280.742188 156.742188 L 291.625 161.398438 C 298.644531 164.402344 301.910156 172.554688 298.902344 179.566406 L 258.878906 272.945312 C 256.691406 278.042969 251.691406 281.335938 246.140625 281.335938 Z M 275.296875 161.03125 C 271.914062 161.03125 268.871094 163.039062 267.539062 166.144531 L 227.511719 259.523438 C 226.625 261.589844 226.597656 263.878906 227.433594 265.972656 C 228.273438 268.058594 229.875 269.699219 231.945312 270.585938 L 242.828125 275.242188 C 243.886719 275.695312 245 275.925781 246.140625 275.925781 C 249.523438 275.925781 252.566406 273.917969 253.898438 270.816406 L 293.925781 177.4375 C 295.753906 173.164062 293.769531 168.203125 289.492188 166.375 L 278.613281 161.714844 C 277.550781 161.261719 276.4375 161.03125 275.296875 161.03125 Z M 275.296875 161.03125 " fill-opacity="1" fill-rule="nonzero"/></g><path fill="#ffffff" d="M 263.132812 256.140625 C 261.527344 259.886719 263.265625 264.226562 267.015625 265.832031 L 274.226562 268.917969 C 277.980469 270.523438 282.320312 268.785156 283.925781 265.039062 L 310.460938 203.136719 C 312.066406 199.390625 310.328125 195.054688 306.578125 193.449219 L 299.363281 190.363281 C 295.613281 188.757812 291.273438 190.492188 289.667969 194.238281 Z M 263.132812 256.140625 " fill-opacity="1" fill-rule="nonzero"/><g clip-path="url(#1870e9e979)"><path fill="#050607" d="M 277.132812 272.222656 C 275.761719 272.222656 274.425781 271.945312 273.160156 271.40625 L 265.949219 268.316406 C 260.832031 266.128906 258.453125 260.1875 260.644531 255.074219 L 287.175781 193.171875 C 288.769531 189.457031 292.414062 187.058594 296.460938 187.058594 C 297.828125 187.058594 299.164062 187.332031 300.429688 187.875 L 307.644531 190.960938 C 310.125 192.019531 312.039062 193.984375 313.042969 196.484375 C 314.046875 198.988281 314.011719 201.730469 312.949219 204.203125 L 286.417969 266.105469 C 284.824219 269.820312 281.179688 272.222656 277.132812 272.222656 Z M 296.460938 192.46875 C 294.585938 192.46875 292.894531 193.582031 292.15625 195.304688 L 265.625 257.207031 C 264.609375 259.574219 265.710938 262.328125 268.082031 263.34375 L 275.296875 266.429688 C 275.882812 266.683594 276.5 266.808594 277.132812 266.808594 C 279.007812 266.8125 280.699219 265.695312 281.4375 263.972656 L 307.96875 202.074219 C 308.460938 200.925781 308.476562 199.65625 308.011719 198.496094 C 307.550781 197.335938 306.660156 196.429688 305.511719 195.9375 L 298.296875 192.847656 C 297.710938 192.597656 297.089844 192.46875 296.460938 192.46875 Z M 296.460938 192.46875 " fill-opacity="1" fill-rule="nonzero"/></g><path fill="#050607" d="M 141.117188 99.925781 L 146.097656 102.058594 L 97.296875 215.902344 L 92.316406 213.769531 Z M 141.117188 99.925781 " fill-opacity="1" fill-rule="nonzero"/><path fill="#050607" d="M 105.996094 107.613281 L 110.976562 109.746094 L 78.625 185.210938 L 73.644531 183.082031 Z M 105.996094 107.613281 " fill-opacity="1" fill-rule="nonzero"/><path fill="#050607" d="M 280.667969 159.636719 L 285.644531 161.765625 L 236.84375 275.609375 L 231.863281 273.480469 Z M 280.667969 159.636719 " fill-opacity="1" fill-rule="nonzero"/><path fill="#050607" d="M 299.3125 190.332031 L 304.292969 192.464844 L 271.941406 267.933594 L 266.960938 265.800781 Z M 299.3125 190.332031 " fill-opacity="1" fill-rule="nonzero"/></svg>