<svg xmlns="http://www.w3.org/2000/svg" xmlns:xlink="http://www.w3.org/1999/xlink" width="500" zoomAndPan="magnify" viewBox="0 0 375 374.999991" height="500" preserveAspectRatio="xMidYMid meet" version="1.0"><defs><g/></defs><g fill="#f4f3f3" fill-opacity="1"><g transform="translate(34.811797, 268.079742)"><g><path d="M 97.359375 -56.40625 L 64.765625 -165.984375 L 106.375 -165.984375 L 161.90625 0 L 113.015625 0 L 106.796875 -21.65625 L 71.84375 -21.65625 L 82.140625 -56.40625 Z M 70.5625 -82.78125 L 46.328125 0 L 0 0 L 50.1875 -150.546875 Z M 70.5625 -82.78125 "/></g></g></g><g fill="#ff9100" fill-opacity="1"><g transform="translate(156.830004, 268.079742)"><g><path d="M 98.4375 -124.8125 L 98.4375 -170.28125 C 111.445312 -169.5625 123.273438 -166.410156 133.921875 -160.828125 C 144.578125 -155.253906 153.476562 -147.820312 160.625 -138.53125 L 123.53125 -109.578125 C 117.375 -118.160156 109.007812 -123.238281 98.4375 -124.8125 Z M 79.5625 -43.3125 L 79.5625 1.71875 C 64.695312 0 51.648438 -4.609375 40.421875 -12.109375 C 29.203125 -19.617188 20.484375 -29.414062 14.265625 -41.5 C 8.046875 -53.582031 4.9375 -67.34375 4.9375 -82.78125 C 4.9375 -93.925781 6.757812 -104.429688 10.40625 -114.296875 C 14.050781 -124.160156 19.195312 -132.988281 25.84375 -140.78125 C 32.488281 -148.570312 40.382812 -154.96875 49.53125 -159.96875 C 58.6875 -164.976562 68.695312 -168.195312 79.5625 -169.625 L 79.5625 -123.09375 C 71.550781 -120.519531 64.972656 -115.660156 59.828125 -108.515625 C 54.679688 -101.367188 52.109375 -92.789062 52.109375 -82.78125 C 52.109375 -73.769531 54.679688 -65.65625 59.828125 -58.4375 C 64.972656 -51.21875 71.550781 -46.175781 79.5625 -43.3125 Z M 175.203125 -93.71875 L 175.203125 0 L 137.46875 0 L 137.46875 -11.15625 C 131.75 -7.4375 125.632812 -4.394531 119.125 -2.03125 C 112.625 0.320312 105.726562 1.785156 98.4375 2.359375 L 98.4375 -41.390625 C 104.726562 -41.960938 109.765625 -43.101562 113.546875 -44.8125 C 117.335938 -46.53125 120.269531 -48.425781 122.34375 -50.5 C 124.414062 -52.570312 125.804688 -54.359375 126.515625 -55.859375 C 127.234375 -57.359375 127.59375 -58.109375 127.59375 -58.109375 L 103.359375 -58.109375 L 103.359375 -93.71875 Z M 175.203125 -93.71875 "/></g></g></g><g fill="#f4f3f3" fill-opacity="1"><g transform="translate(96.824192, 314.698239)"><g><path d="M 8.09375 -18.609375 L 9.640625 -18.609375 L 17.375 0 L 15.4375 0 L 13.015625 -5.8125 L 4.671875 -5.8125 L 2.28125 0 L 0.3125 0 Z M 12.609375 -7.265625 L 8.859375 -16.453125 L 5.0625 -7.265625 Z M 12.609375 -7.265625 "/></g></g></g><g fill="#f4f3f3" fill-opacity="1"><g transform="translate(118.12044, 314.698239)"><g><path d="M 9.796875 0.125 C 8.554688 0.125 7.40625 -0.140625 6.34375 -0.671875 C 5.28125 -1.203125 4.351562 -1.921875 3.5625 -2.828125 C 2.78125 -3.734375 2.171875 -4.742188 1.734375 -5.859375 C 1.304688 -6.984375 1.09375 -8.140625 1.09375 -9.328125 C 1.09375 -10.585938 1.304688 -11.78125 1.734375 -12.90625 C 2.171875 -14.03125 2.769531 -15.03125 3.53125 -15.90625 C 4.300781 -16.78125 5.207031 -17.46875 6.25 -17.96875 C 7.300781 -18.476562 8.445312 -18.734375 9.6875 -18.734375 C 11.53125 -18.734375 13.023438 -18.359375 14.171875 -17.609375 C 15.328125 -16.859375 16.203125 -15.878906 16.796875 -14.671875 L 15.375 -13.734375 C 14.78125 -14.878906 13.984375 -15.722656 12.984375 -16.265625 C 11.992188 -16.804688 10.890625 -17.078125 9.671875 -17.078125 C 8.640625 -17.078125 7.707031 -16.859375 6.875 -16.421875 C 6.050781 -15.992188 5.34375 -15.410156 4.75 -14.671875 C 4.15625 -13.941406 3.703125 -13.113281 3.390625 -12.1875 C 3.085938 -11.257812 2.9375 -10.296875 2.9375 -9.296875 C 2.9375 -8.253906 3.109375 -7.265625 3.453125 -6.328125 C 3.804688 -5.390625 4.304688 -4.554688 4.953125 -3.828125 C 5.597656 -3.109375 6.34375 -2.539062 7.1875 -2.125 C 8.039062 -1.71875 8.957031 -1.515625 9.9375 -1.515625 C 11.070312 -1.515625 12.144531 -1.796875 13.15625 -2.359375 C 14.164062 -2.929688 15.132812 -3.8125 16.0625 -5 L 16.0625 -3.0625 C 14.300781 -0.9375 12.210938 0.125 9.796875 0.125 Z M 15.78125 -7.734375 L 11.640625 -7.734375 L 11.640625 -9.140625 L 17.3125 -9.140625 L 17.3125 0 L 15.78125 0 Z M 15.78125 -7.734375 "/></g></g></g><g fill="#f4f3f3" fill-opacity="1"><g transform="translate(140.464335, 314.698239)"><g/></g></g><g fill="#f4f3f3" fill-opacity="1"><g transform="translate(150.734047, 314.698239)"><g><path d="M 2.328125 0 L 2.328125 -18.609375 L 14.546875 -18.609375 L 14.546875 -16.984375 L 4.171875 -16.984375 L 4.171875 -10.140625 L 12.921875 -10.140625 L 12.921875 -8.625 L 4.171875 -8.625 L 4.171875 0 Z M 2.328125 0 "/></g></g></g><g fill="#f4f3f3" fill-opacity="1"><g transform="translate(169.751635, 314.698239)"><g><path d="M 2.328125 0 L 2.328125 -18.609375 L 4.171875 -18.609375 L 4.171875 0 Z M 2.328125 0 "/></g></g></g><g fill="#f4f3f3" fill-opacity="1"><g transform="translate(179.838005, 314.698239)"><g><path d="M 15.53125 -16.984375 L 8.90625 -16.984375 L 8.90625 0 L 7.078125 0 L 7.078125 -16.984375 L 0.453125 -16.984375 L 0.453125 -18.609375 L 15.53125 -18.609375 Z M 15.53125 -16.984375 "/></g></g></g><g fill="#f4f3f3" fill-opacity="1"><g transform="translate(199.405625, 314.698239)"><g><path d="M 4.171875 -15.21875 L 4.171875 0 L 2.328125 0 L 2.328125 -18.609375 L 3.859375 -18.609375 L 16.0625 -3.09375 L 16.0625 -18.578125 L 17.890625 -18.578125 L 17.890625 0 L 16.1875 0 Z M 4.171875 -15.21875 "/></g></g></g><g fill="#f4f3f3" fill-opacity="1"><g transform="translate(223.216241, 314.698239)"><g><path d="M 14.828125 -1.625 L 14.828125 0 L 2.328125 0 L 2.328125 -18.609375 L 14.59375 -18.609375 L 14.59375 -16.984375 L 4.171875 -16.984375 L 4.171875 -10.265625 L 13.265625 -10.265625 L 13.265625 -8.71875 L 4.171875 -8.71875 L 4.171875 -1.625 Z M 14.828125 -1.625 "/></g></g></g><g fill="#f4f3f3" fill-opacity="1"><g transform="translate(242.757658, 314.698239)"><g><path d="M 13.203125 -15.125 C 12.941406 -15.414062 12.632812 -15.675781 12.28125 -15.90625 C 11.9375 -16.144531 11.546875 -16.351562 11.109375 -16.53125 C 10.671875 -16.707031 10.203125 -16.847656 9.703125 -16.953125 C 9.210938 -17.054688 8.6875 -17.109375 8.125 -17.109375 C 6.5 -17.109375 5.304688 -16.796875 4.546875 -16.171875 C 3.785156 -15.554688 3.40625 -14.71875 3.40625 -13.65625 C 3.40625 -12.914062 3.582031 -12.335938 3.9375 -11.921875 C 4.300781 -11.503906 4.863281 -11.160156 5.625 -10.890625 C 6.394531 -10.628906 7.375 -10.363281 8.5625 -10.09375 C 9.894531 -9.8125 11.039062 -9.476562 12 -9.09375 C 12.957031 -8.707031 13.695312 -8.1875 14.21875 -7.53125 C 14.75 -6.875 15.015625 -5.988281 15.015625 -4.875 C 15.015625 -4.019531 14.847656 -3.273438 14.515625 -2.640625 C 14.179688 -2.015625 13.71875 -1.492188 13.125 -1.078125 C 12.53125 -0.660156 11.820312 -0.347656 11 -0.140625 C 10.1875 0.0546875 9.289062 0.15625 8.3125 0.15625 C 7.34375 0.15625 6.414062 0.0546875 5.53125 -0.140625 C 4.65625 -0.347656 3.820312 -0.644531 3.03125 -1.03125 C 2.25 -1.425781 1.519531 -1.929688 0.84375 -2.546875 L 1.75 -4.03125 C 2.082031 -3.6875 2.476562 -3.359375 2.9375 -3.046875 C 3.40625 -2.742188 3.921875 -2.46875 4.484375 -2.21875 C 5.054688 -1.976562 5.671875 -1.789062 6.328125 -1.65625 C 6.984375 -1.53125 7.660156 -1.46875 8.359375 -1.46875 C 9.847656 -1.46875 11.003906 -1.738281 11.828125 -2.28125 C 12.660156 -2.820312 13.078125 -3.625 13.078125 -4.6875 C 13.078125 -5.457031 12.863281 -6.070312 12.4375 -6.53125 C 12.019531 -7 11.390625 -7.378906 10.546875 -7.671875 C 9.710938 -7.972656 8.6875 -8.265625 7.46875 -8.546875 C 6.175781 -8.835938 5.082031 -9.164062 4.1875 -9.53125 C 3.300781 -9.90625 2.632812 -10.390625 2.1875 -10.984375 C 1.738281 -11.585938 1.515625 -12.390625 1.515625 -13.390625 C 1.515625 -14.546875 1.796875 -15.519531 2.359375 -16.3125 C 2.929688 -17.101562 3.710938 -17.703125 4.703125 -18.109375 C 5.703125 -18.523438 6.851562 -18.734375 8.15625 -18.734375 C 8.96875 -18.734375 9.726562 -18.648438 10.4375 -18.484375 C 11.144531 -18.316406 11.800781 -18.078125 12.40625 -17.765625 C 13.007812 -17.453125 13.570312 -17.0625 14.09375 -16.59375 Z M 13.203125 -15.125 "/></g></g></g><g fill="#f4f3f3" fill-opacity="1"><g transform="translate(262.246709, 314.698239)"><g><path d="M 13.203125 -15.125 C 12.941406 -15.414062 12.632812 -15.675781 12.28125 -15.90625 C 11.9375 -16.144531 11.546875 -16.351562 11.109375 -16.53125 C 10.671875 -16.707031 10.203125 -16.847656 9.703125 -16.953125 C 9.210938 -17.054688 8.6875 -17.109375 8.125 -17.109375 C 6.5 -17.109375 5.304688 -16.796875 4.546875 -16.171875 C 3.785156 -15.554688 3.40625 -14.71875 3.40625 -13.65625 C 3.40625 -12.914062 3.582031 -12.335938 3.9375 -11.921875 C 4.300781 -11.503906 4.863281 -11.160156 5.625 -10.890625 C 6.394531 -10.628906 7.375 -10.363281 8.5625 -10.09375 C 9.894531 -9.8125 11.039062 -9.476562 12 -9.09375 C 12.957031 -8.707031 13.695312 -8.1875 14.21875 -7.53125 C 14.75 -6.875 15.015625 -5.988281 15.015625 -4.875 C 15.015625 -4.019531 14.847656 -3.273438 14.515625 -2.640625 C 14.179688 -2.015625 13.71875 -1.492188 13.125 -1.078125 C 12.53125 -0.660156 11.820312 -0.347656 11 -0.140625 C 10.1875 0.0546875 9.289062 0.15625 8.3125 0.15625 C 7.34375 0.15625 6.414062 0.0546875 5.53125 -0.140625 C 4.65625 -0.347656 3.820312 -0.644531 3.03125 -1.03125 C 2.25 -1.425781 1.519531 -1.929688 0.84375 -2.546875 L 1.75 -4.03125 C 2.082031 -3.6875 2.476562 -3.359375 2.9375 -3.046875 C 3.40625 -2.742188 3.921875 -2.46875 4.484375 -2.21875 C 5.054688 -1.976562 5.671875 -1.789062 6.328125 -1.65625 C 6.984375 -1.53125 7.660156 -1.46875 8.359375 -1.46875 C 9.847656 -1.46875 11.003906 -1.738281 11.828125 -2.28125 C 12.660156 -2.820312 13.078125 -3.625 13.078125 -4.6875 C 13.078125 -5.457031 12.863281 -6.070312 12.4375 -6.53125 C 12.019531 -7 11.390625 -7.378906 10.546875 -7.671875 C 9.710938 -7.972656 8.6875 -8.265625 7.46875 -8.546875 C 6.175781 -8.835938 5.082031 -9.164062 4.1875 -9.53125 C 3.300781 -9.90625 2.632812 -10.390625 2.1875 -10.984375 C 1.738281 -11.585938 1.515625 -12.390625 1.515625 -13.390625 C 1.515625 -14.546875 1.796875 -15.519531 2.359375 -16.3125 C 2.929688 -17.101562 3.710938 -17.703125 4.703125 -18.109375 C 5.703125 -18.523438 6.851562 -18.734375 8.15625 -18.734375 C 8.96875 -18.734375 9.726562 -18.648438 10.4375 -18.484375 C 11.144531 -18.316406 11.800781 -18.078125 12.40625 -17.765625 C 13.007812 -17.453125 13.570312 -17.0625 14.09375 -16.59375 Z M 13.203125 -15.125 "/></g></g></g></svg>