<svg xmlns="http://www.w3.org/2000/svg" xmlns:xlink="http://www.w3.org/1999/xlink" width="500" zoomAndPan="magnify" viewBox="0 0 375 374.999991" height="500" preserveAspectRatio="xMidYMid meet" version="1.0"><defs><g/></defs><g fill="#f4f3f3" fill-opacity="1"><g transform="translate(99.815965, 233.770163)"><g><path d="M 55.90625 -32.390625 L 37.1875 -95.3125 L 61.078125 -95.3125 L 92.96875 0 L 64.890625 0 L 61.328125 -12.4375 L 41.25 -12.4375 L 47.15625 -32.390625 Z M 40.515625 -47.53125 L 26.59375 0 L 0 0 L 28.8125 -86.4375 Z M 40.515625 -47.53125 "/></g></g></g><g fill="#ff9100" fill-opacity="1"><g transform="translate(169.880766, 233.770163)"><g><path d="M 56.515625 -71.671875 L 56.515625 -97.78125 C 63.992188 -97.363281 70.789062 -95.550781 76.90625 -92.34375 C 83.019531 -89.144531 88.128906 -84.878906 92.234375 -79.546875 L 70.921875 -62.921875 C 67.398438 -67.847656 62.597656 -70.765625 56.515625 -71.671875 Z M 45.6875 -24.875 L 45.6875 0.984375 C 37.144531 -0.00390625 29.648438 -2.648438 23.203125 -6.953125 C 16.765625 -11.265625 11.757812 -16.890625 8.1875 -23.828125 C 4.613281 -30.765625 2.828125 -38.664062 2.828125 -47.53125 C 2.828125 -53.9375 3.875 -59.96875 5.96875 -65.625 C 8.0625 -71.289062 11.015625 -76.359375 14.828125 -80.828125 C 18.648438 -85.304688 23.1875 -88.984375 28.4375 -91.859375 C 33.695312 -94.734375 39.445312 -96.582031 45.6875 -97.40625 L 45.6875 -70.6875 C 41.09375 -69.207031 37.316406 -66.414062 34.359375 -62.3125 C 31.398438 -58.207031 29.921875 -53.28125 29.921875 -47.53125 C 29.921875 -42.363281 31.398438 -37.707031 34.359375 -33.5625 C 37.316406 -29.414062 41.09375 -26.519531 45.6875 -24.875 Z M 100.609375 -53.8125 L 100.609375 0 L 78.9375 0 L 78.9375 -6.40625 C 75.644531 -4.269531 72.128906 -2.523438 68.390625 -1.171875 C 64.660156 0.179688 60.703125 1.023438 56.515625 1.359375 L 56.515625 -23.765625 C 60.128906 -24.097656 63.023438 -24.753906 65.203125 -25.734375 C 67.378906 -26.722656 69.0625 -27.8125 70.25 -29 C 71.4375 -30.1875 72.234375 -31.210938 72.640625 -32.078125 C 73.054688 -32.941406 73.265625 -33.375 73.265625 -33.375 L 59.359375 -33.375 L 59.359375 -53.8125 Z M 100.609375 -53.8125 "/></g></g></g><g fill="#f4f3f3" fill-opacity="1"><g transform="translate(135.429173, 260.539276)"><g><path d="M 4.65625 -10.6875 L 5.53125 -10.6875 L 9.96875 0 L 8.859375 0 L 7.484375 -3.34375 L 2.671875 -3.34375 L 1.3125 0 L 0.1875 0 Z M 7.234375 -4.171875 L 5.078125 -9.453125 L 2.90625 -4.171875 Z M 7.234375 -4.171875 "/></g></g></g><g fill="#f4f3f3" fill-opacity="1"><g transform="translate(147.65782, 260.539276)"><g><path d="M 5.625 0.078125 C 4.914062 0.078125 4.253906 -0.0703125 3.640625 -0.375 C 3.023438 -0.6875 2.492188 -1.101562 2.046875 -1.625 C 1.597656 -2.144531 1.25 -2.722656 1 -3.359375 C 0.75 -4.003906 0.625 -4.671875 0.625 -5.359375 C 0.625 -6.078125 0.75 -6.757812 1 -7.40625 C 1.25 -8.050781 1.59375 -8.625 2.03125 -9.125 C 2.46875 -9.632812 2.988281 -10.035156 3.59375 -10.328125 C 4.195312 -10.617188 4.851562 -10.765625 5.5625 -10.765625 C 6.613281 -10.765625 7.472656 -10.546875 8.140625 -10.109375 C 8.804688 -9.679688 9.304688 -9.117188 9.640625 -8.421875 L 8.828125 -7.890625 C 8.492188 -8.546875 8.039062 -9.03125 7.46875 -9.34375 C 6.894531 -9.65625 6.253906 -9.8125 5.546875 -9.8125 C 4.960938 -9.8125 4.429688 -9.6875 3.953125 -9.4375 C 3.472656 -9.1875 3.0625 -8.847656 2.71875 -8.421875 C 2.382812 -8.003906 2.128906 -7.53125 1.953125 -7 C 1.773438 -6.46875 1.6875 -5.914062 1.6875 -5.34375 C 1.6875 -4.738281 1.785156 -4.164062 1.984375 -3.625 C 2.179688 -3.09375 2.46875 -2.617188 2.84375 -2.203125 C 3.21875 -1.785156 3.644531 -1.457031 4.125 -1.21875 C 4.613281 -0.988281 5.140625 -0.875 5.703125 -0.875 C 6.359375 -0.875 6.972656 -1.035156 7.546875 -1.359375 C 8.128906 -1.679688 8.6875 -2.1875 9.21875 -2.875 L 9.21875 -1.765625 C 8.207031 -0.535156 7.007812 0.078125 5.625 0.078125 Z M 9.0625 -4.4375 L 6.6875 -4.4375 L 6.6875 -5.25 L 9.953125 -5.25 L 9.953125 0 L 9.0625 0 Z M 9.0625 -4.4375 "/></g></g></g><g fill="#f4f3f3" fill-opacity="1"><g transform="translate(160.488043, 260.539276)"><g/></g></g><g fill="#f4f3f3" fill-opacity="1"><g transform="translate(166.385076, 260.539276)"><g><path d="M 1.34375 0 L 1.34375 -10.6875 L 8.34375 -10.6875 L 8.34375 -9.75 L 2.390625 -9.75 L 2.390625 -5.828125 L 7.421875 -5.828125 L 7.421875 -4.953125 L 2.390625 -4.953125 L 2.390625 0 Z M 1.34375 0 "/></g></g></g><g fill="#f4f3f3" fill-opacity="1"><g transform="translate(177.30528, 260.539276)"><g><path d="M 1.34375 0 L 1.34375 -10.6875 L 2.390625 -10.6875 L 2.390625 0 Z M 1.34375 0 "/></g></g></g><g fill="#f4f3f3" fill-opacity="1"><g transform="translate(183.097035, 260.539276)"><g><path d="M 8.921875 -9.75 L 5.109375 -9.75 L 5.109375 0 L 4.0625 0 L 4.0625 -9.75 L 0.25 -9.75 L 0.25 -10.6875 L 8.921875 -10.6875 Z M 8.921875 -9.75 "/></g></g></g><g fill="#f4f3f3" fill-opacity="1"><g transform="translate(194.333076, 260.539276)"><g><path d="M 2.390625 -8.75 L 2.390625 0 L 1.34375 0 L 1.34375 -10.6875 L 2.21875 -10.6875 L 9.21875 -1.78125 L 9.21875 -10.671875 L 10.28125 -10.671875 L 10.28125 0 L 9.296875 0 Z M 2.390625 -8.75 "/></g></g></g><g fill="#f4f3f3" fill-opacity="1"><g transform="translate(208.005513, 260.539276)"><g><path d="M 8.515625 -0.9375 L 8.515625 0 L 1.34375 0 L 1.34375 -10.6875 L 8.375 -10.6875 L 8.375 -9.75 L 2.390625 -9.75 L 2.390625 -5.890625 L 7.609375 -5.890625 L 7.609375 -5.015625 L 2.390625 -5.015625 L 2.390625 -0.9375 Z M 8.515625 -0.9375 "/></g></g></g><g fill="#f4f3f3" fill-opacity="1"><g transform="translate(219.226507, 260.539276)"><g><path d="M 7.578125 -8.6875 C 7.429688 -8.851562 7.253906 -9.003906 7.046875 -9.140625 C 6.847656 -9.273438 6.625 -9.390625 6.375 -9.484375 C 6.125 -9.585938 5.851562 -9.671875 5.5625 -9.734375 C 5.28125 -9.796875 4.984375 -9.828125 4.671875 -9.828125 C 3.734375 -9.828125 3.046875 -9.644531 2.609375 -9.28125 C 2.171875 -8.925781 1.953125 -8.445312 1.953125 -7.84375 C 1.953125 -7.414062 2.054688 -7.082031 2.265625 -6.84375 C 2.472656 -6.601562 2.796875 -6.40625 3.234375 -6.25 C 3.671875 -6.101562 4.234375 -5.953125 4.921875 -5.796875 C 5.679688 -5.628906 6.335938 -5.4375 6.890625 -5.21875 C 7.441406 -5 7.867188 -4.703125 8.171875 -4.328125 C 8.472656 -3.953125 8.625 -3.441406 8.625 -2.796875 C 8.625 -2.304688 8.523438 -1.878906 8.328125 -1.515625 C 8.140625 -1.160156 7.875 -0.859375 7.53125 -0.609375 C 7.195312 -0.367188 6.789062 -0.191406 6.3125 -0.078125 C 5.84375 0.0351562 5.328125 0.09375 4.765625 0.09375 C 4.210938 0.09375 3.679688 0.0351562 3.171875 -0.078125 C 2.671875 -0.191406 2.191406 -0.363281 1.734375 -0.59375 C 1.285156 -0.820312 0.867188 -1.109375 0.484375 -1.453125 L 1.015625 -2.3125 C 1.203125 -2.113281 1.425781 -1.925781 1.6875 -1.75 C 1.957031 -1.570312 2.253906 -1.410156 2.578125 -1.265625 C 2.898438 -1.128906 3.25 -1.023438 3.625 -0.953125 C 4.007812 -0.878906 4.398438 -0.84375 4.796875 -0.84375 C 5.648438 -0.84375 6.316406 -1 6.796875 -1.3125 C 7.273438 -1.625 7.515625 -2.082031 7.515625 -2.6875 C 7.515625 -3.132812 7.390625 -3.488281 7.140625 -3.75 C 6.898438 -4.019531 6.539062 -4.238281 6.0625 -4.40625 C 5.582031 -4.582031 4.988281 -4.75 4.28125 -4.90625 C 3.539062 -5.070312 2.914062 -5.257812 2.40625 -5.46875 C 1.894531 -5.6875 1.507812 -5.96875 1.25 -6.3125 C 1 -6.65625 0.875 -7.113281 0.875 -7.6875 C 0.875 -8.351562 1.035156 -8.910156 1.359375 -9.359375 C 1.679688 -9.816406 2.128906 -10.164062 2.703125 -10.40625 C 3.273438 -10.644531 3.929688 -10.765625 4.671875 -10.765625 C 5.148438 -10.765625 5.59375 -10.710938 6 -10.609375 C 6.40625 -10.515625 6.78125 -10.378906 7.125 -10.203125 C 7.46875 -10.023438 7.789062 -9.800781 8.09375 -9.53125 Z M 7.578125 -8.6875 "/></g></g></g><g fill="#f4f3f3" fill-opacity="1"><g transform="translate(230.417433, 260.539276)"><g><path d="M 7.578125 -8.6875 C 7.429688 -8.851562 7.253906 -9.003906 7.046875 -9.140625 C 6.847656 -9.273438 6.625 -9.390625 6.375 -9.484375 C 6.125 -9.585938 5.851562 -9.671875 5.5625 -9.734375 C 5.28125 -9.796875 4.984375 -9.828125 4.671875 -9.828125 C 3.734375 -9.828125 3.046875 -9.644531 2.609375 -9.28125 C 2.171875 -8.925781 1.953125 -8.445312 1.953125 -7.84375 C 1.953125 -7.414062 2.054688 -7.082031 2.265625 -6.84375 C 2.472656 -6.601562 2.796875 -6.40625 3.234375 -6.25 C 3.671875 -6.101562 4.234375 -5.953125 4.921875 -5.796875 C 5.679688 -5.628906 6.335938 -5.4375 6.890625 -5.21875 C 7.441406 -5 7.867188 -4.703125 8.171875 -4.328125 C 8.472656 -3.953125 8.625 -3.441406 8.625 -2.796875 C 8.625 -2.304688 8.523438 -1.878906 8.328125 -1.515625 C 8.140625 -1.160156 7.875 -0.859375 7.53125 -0.609375 C 7.195312 -0.367188 6.789062 -0.191406 6.3125 -0.078125 C 5.84375 0.0351562 5.328125 0.09375 4.765625 0.09375 C 4.210938 0.09375 3.679688 0.0351562 3.171875 -0.078125 C 2.671875 -0.191406 2.191406 -0.363281 1.734375 -0.59375 C 1.285156 -0.820312 0.867188 -1.109375 0.484375 -1.453125 L 1.015625 -2.3125 C 1.203125 -2.113281 1.425781 -1.925781 1.6875 -1.75 C 1.957031 -1.570312 2.253906 -1.410156 2.578125 -1.265625 C 2.898438 -1.128906 3.25 -1.023438 3.625 -0.953125 C 4.007812 -0.878906 4.398438 -0.84375 4.796875 -0.84375 C 5.648438 -0.84375 6.316406 -1 6.796875 -1.3125 C 7.273438 -1.625 7.515625 -2.082031 7.515625 -2.6875 C 7.515625 -3.132812 7.390625 -3.488281 7.140625 -3.75 C 6.898438 -4.019531 6.539062 -4.238281 6.0625 -4.40625 C 5.582031 -4.582031 4.988281 -4.75 4.28125 -4.90625 C 3.539062 -5.070312 2.914062 -5.257812 2.40625 -5.46875 C 1.894531 -5.6875 1.507812 -5.96875 1.25 -6.3125 C 1 -6.65625 0.875 -7.113281 0.875 -7.6875 C 0.875 -8.351562 1.035156 -8.910156 1.359375 -9.359375 C 1.679688 -9.816406 2.128906 -10.164062 2.703125 -10.40625 C 3.273438 -10.644531 3.929688 -10.765625 4.671875 -10.765625 C 5.148438 -10.765625 5.59375 -10.710938 6 -10.609375 C 6.40625 -10.515625 6.78125 -10.378906 7.125 -10.203125 C 7.46875 -10.023438 7.789062 -9.800781 8.09375 -9.53125 Z M 7.578125 -8.6875 "/></g></g></g></svg>