<svg xmlns="http://www.w3.org/2000/svg" xmlns:xlink="http://www.w3.org/1999/xlink" width="500" zoomAndPan="magnify" viewBox="0 0 375 374.999991" height="500" preserveAspectRatio="xMidYMid meet" version="1.0"><defs><g/></defs><g fill="#f4f3f3" fill-opacity="1"><g transform="translate(2.609921, 287.218388)"><g><path d="M 120.484375 -69.796875 L 80.140625 -205.40625 L 131.625 -205.40625 L 200.359375 0 L 139.859375 0 L 132.15625 -26.796875 L 88.90625 -26.796875 L 101.640625 -69.796875 Z M 87.3125 -102.4375 L 57.328125 0 L 0 0 L 62.09375 -186.296875 Z M 87.3125 -102.4375 "/></g></g></g><g fill="#ff9100" fill-opacity="1"><g transform="translate(153.608943, 287.218388)"><g><path d="M 121.8125 -154.453125 L 121.8125 -210.703125 C 137.90625 -209.816406 152.539062 -205.925781 165.71875 -199.03125 C 178.90625 -192.132812 189.921875 -182.9375 198.765625 -171.4375 L 152.859375 -135.609375 C 145.242188 -146.222656 134.894531 -152.503906 121.8125 -154.453125 Z M 98.453125 -53.609375 L 98.453125 2.125 C 80.054688 0 63.910156 -5.703125 50.015625 -14.984375 C 36.128906 -24.273438 25.335938 -36.394531 17.640625 -51.34375 C 9.953125 -66.300781 6.109375 -83.332031 6.109375 -102.4375 C 6.109375 -116.238281 8.363281 -129.238281 12.875 -141.4375 C 17.382812 -153.644531 23.75 -164.570312 31.96875 -174.21875 C 40.195312 -183.863281 49.972656 -191.78125 61.296875 -197.96875 C 72.617188 -204.15625 85.003906 -208.132812 98.453125 -209.90625 L 98.453125 -152.328125 C 88.546875 -149.140625 80.40625 -143.125 74.03125 -134.28125 C 67.664062 -125.4375 64.484375 -114.820312 64.484375 -102.4375 C 64.484375 -91.289062 67.664062 -81.25 74.03125 -72.3125 C 80.40625 -63.375 88.546875 -57.140625 98.453125 -53.609375 Z M 216.8125 -115.96875 L 216.8125 0 L 170.109375 0 L 170.109375 -13.796875 C 163.023438 -9.203125 155.457031 -5.441406 147.40625 -2.515625 C 139.363281 0.398438 130.832031 2.210938 121.8125 2.921875 L 121.8125 -51.21875 C 129.59375 -51.925781 135.828125 -53.335938 140.515625 -55.453125 C 145.203125 -57.578125 148.828125 -59.921875 151.390625 -62.484375 C 153.960938 -65.054688 155.6875 -67.269531 156.5625 -69.125 C 157.445312 -70.988281 157.890625 -71.921875 157.890625 -71.921875 L 127.90625 -71.921875 L 127.90625 -115.96875 Z M 216.8125 -115.96875 "/></g></g></g><g fill="#f4f3f3" fill-opacity="1"><g transform="translate(79.351029, 344.909386)"><g><path d="M 10.015625 -23.03125 L 11.9375 -23.03125 L 21.5 0 L 19.109375 0 L 16.125 -7.203125 L 5.78125 -7.203125 L 2.828125 0 L 0.390625 0 Z M 15.609375 -8.984375 L 10.96875 -20.375 L 6.265625 -8.984375 Z M 15.609375 -8.984375 "/></g></g></g><g fill="#f4f3f3" fill-opacity="1"><g transform="translate(105.7054, 344.909386)"><g><path d="M 12.125 0.15625 C 10.59375 0.15625 9.164062 -0.171875 7.84375 -0.828125 C 6.53125 -1.484375 5.382812 -2.375 4.40625 -3.5 C 3.4375 -4.625 2.6875 -5.878906 2.15625 -7.265625 C 1.625 -8.648438 1.359375 -10.078125 1.359375 -11.546875 C 1.359375 -13.109375 1.625 -14.582031 2.15625 -15.96875 C 2.6875 -17.363281 3.425781 -18.601562 4.375 -19.6875 C 5.332031 -20.769531 6.457031 -21.625 7.75 -22.25 C 9.050781 -22.875 10.46875 -23.1875 12 -23.1875 C 14.269531 -23.1875 16.117188 -22.722656 17.546875 -21.796875 C 18.972656 -20.867188 20.054688 -19.660156 20.796875 -18.171875 L 19.046875 -17 C 18.304688 -18.425781 17.316406 -19.472656 16.078125 -20.140625 C 14.847656 -20.816406 13.476562 -21.15625 11.96875 -21.15625 C 10.695312 -21.15625 9.546875 -20.882812 8.515625 -20.34375 C 7.484375 -19.800781 6.597656 -19.070312 5.859375 -18.15625 C 5.128906 -17.25 4.578125 -16.222656 4.203125 -15.078125 C 3.828125 -13.929688 3.640625 -12.742188 3.640625 -11.515625 C 3.640625 -10.210938 3.851562 -8.984375 4.28125 -7.828125 C 4.71875 -6.671875 5.332031 -5.644531 6.125 -4.75 C 6.925781 -3.851562 7.851562 -3.148438 8.90625 -2.640625 C 9.957031 -2.128906 11.085938 -1.875 12.296875 -1.875 C 13.703125 -1.875 15.03125 -2.222656 16.28125 -2.921875 C 17.539062 -3.628906 18.742188 -4.722656 19.890625 -6.203125 L 19.890625 -3.796875 C 17.703125 -1.160156 15.113281 0.15625 12.125 0.15625 Z M 19.53125 -9.5625 L 14.40625 -9.5625 L 14.40625 -11.328125 L 21.4375 -11.328125 L 21.4375 0 L 19.53125 0 Z M 19.53125 -9.5625 "/></g></g></g><g fill="#f4f3f3" fill-opacity="1"><g transform="translate(133.356248, 344.909386)"><g/></g></g><g fill="#f4f3f3" fill-opacity="1"><g transform="translate(146.065143, 344.909386)"><g><path d="M 2.890625 0 L 2.890625 -23.03125 L 18 -23.03125 L 18 -21.015625 L 5.15625 -21.015625 L 5.15625 -12.546875 L 15.984375 -12.546875 L 15.984375 -10.671875 L 5.15625 -10.671875 L 5.15625 0 Z M 2.890625 0 "/></g></g></g><g fill="#f4f3f3" fill-opacity="1"><g transform="translate(169.599645, 344.909386)"><g><path d="M 2.890625 0 L 2.890625 -23.03125 L 5.15625 -23.03125 L 5.15625 0 Z M 2.890625 0 "/></g></g></g><g fill="#f4f3f3" fill-opacity="1"><g transform="translate(182.081652, 344.909386)"><g><path d="M 19.234375 -21.015625 L 11.03125 -21.015625 L 11.03125 0 L 8.765625 0 L 8.765625 -21.015625 L 0.546875 -21.015625 L 0.546875 -23.03125 L 19.234375 -23.03125 Z M 19.234375 -21.015625 "/></g></g></g><g fill="#f4f3f3" fill-opacity="1"><g transform="translate(206.296825, 344.909386)"><g><path d="M 5.15625 -18.84375 L 5.15625 0 L 2.890625 0 L 2.890625 -23.03125 L 4.765625 -23.03125 L 19.890625 -3.828125 L 19.890625 -23 L 22.15625 -23 L 22.15625 0 L 20.046875 0 Z M 5.15625 -18.84375 "/></g></g></g><g fill="#f4f3f3" fill-opacity="1"><g transform="translate(235.762757, 344.909386)"><g><path d="M 18.359375 -2.015625 L 18.359375 0 L 2.890625 0 L 2.890625 -23.03125 L 18.0625 -23.03125 L 18.0625 -21.015625 L 5.15625 -21.015625 L 5.15625 -12.71875 L 16.40625 -12.71875 L 16.40625 -10.796875 L 5.15625 -10.796875 L 5.15625 -2.015625 Z M 18.359375 -2.015625 "/></g></g></g><g fill="#f4f3f3" fill-opacity="1"><g transform="translate(259.945503, 344.909386)"><g><path d="M 16.34375 -18.71875 C 16.019531 -19.082031 15.640625 -19.410156 15.203125 -19.703125 C 14.773438 -19.992188 14.289062 -20.25 13.75 -20.46875 C 13.207031 -20.6875 12.628906 -20.859375 12.015625 -20.984375 C 11.398438 -21.117188 10.75 -21.1875 10.0625 -21.1875 C 8.039062 -21.1875 6.5625 -20.800781 5.625 -20.03125 C 4.6875 -19.257812 4.21875 -18.21875 4.21875 -16.90625 C 4.21875 -15.988281 4.4375 -15.269531 4.875 -14.75 C 5.320312 -14.238281 6.019531 -13.816406 6.96875 -13.484375 C 7.925781 -13.160156 9.140625 -12.828125 10.609375 -12.484375 C 12.253906 -12.140625 13.671875 -11.726562 14.859375 -11.25 C 16.046875 -10.78125 16.960938 -10.140625 17.609375 -9.328125 C 18.265625 -8.515625 18.59375 -7.414062 18.59375 -6.03125 C 18.59375 -4.96875 18.382812 -4.046875 17.96875 -3.265625 C 17.5625 -2.492188 16.988281 -1.847656 16.25 -1.328125 C 15.507812 -0.804688 14.628906 -0.421875 13.609375 -0.171875 C 12.597656 0.0664062 11.488281 0.1875 10.28125 0.1875 C 9.09375 0.1875 7.953125 0.0664062 6.859375 -0.171875 C 5.765625 -0.421875 4.726562 -0.789062 3.75 -1.28125 C 2.78125 -1.769531 1.875 -2.390625 1.03125 -3.140625 L 2.171875 -5 C 2.585938 -4.5625 3.082031 -4.15625 3.65625 -3.78125 C 4.226562 -3.40625 4.863281 -3.0625 5.5625 -2.75 C 6.269531 -2.445312 7.023438 -2.210938 7.828125 -2.046875 C 8.640625 -1.890625 9.476562 -1.8125 10.34375 -1.8125 C 12.1875 -1.8125 13.617188 -2.144531 14.640625 -2.8125 C 15.671875 -3.488281 16.1875 -4.488281 16.1875 -5.8125 C 16.1875 -6.757812 15.925781 -7.519531 15.40625 -8.09375 C 14.882812 -8.664062 14.101562 -9.132812 13.0625 -9.5 C 12.03125 -9.875 10.757812 -10.234375 9.25 -10.578125 C 7.644531 -10.941406 6.289062 -11.347656 5.1875 -11.796875 C 4.082031 -12.253906 3.253906 -12.859375 2.703125 -13.609375 C 2.148438 -14.359375 1.875 -15.347656 1.875 -16.578125 C 1.875 -18.003906 2.222656 -19.207031 2.921875 -20.1875 C 3.628906 -21.175781 4.597656 -21.921875 5.828125 -22.421875 C 7.066406 -22.929688 8.488281 -23.1875 10.09375 -23.1875 C 11.101562 -23.1875 12.046875 -23.082031 12.921875 -22.875 C 13.796875 -22.675781 14.609375 -22.378906 15.359375 -21.984375 C 16.109375 -21.597656 16.804688 -21.113281 17.453125 -20.53125 Z M 16.34375 -18.71875 "/></g></g></g><g fill="#f4f3f3" fill-opacity="1"><g transform="translate(284.063445, 344.909386)"><g><path d="M 16.34375 -18.71875 C 16.019531 -19.082031 15.640625 -19.410156 15.203125 -19.703125 C 14.773438 -19.992188 14.289062 -20.25 13.75 -20.46875 C 13.207031 -20.6875 12.628906 -20.859375 12.015625 -20.984375 C 11.398438 -21.117188 10.75 -21.1875 10.0625 -21.1875 C 8.039062 -21.1875 6.5625 -20.800781 5.625 -20.03125 C 4.6875 -19.257812 4.21875 -18.21875 4.21875 -16.90625 C 4.21875 -15.988281 4.4375 -15.269531 4.875 -14.75 C 5.320312 -14.238281 6.019531 -13.816406 6.96875 -13.484375 C 7.925781 -13.160156 9.140625 -12.828125 10.609375 -12.484375 C 12.253906 -12.140625 13.671875 -11.726562 14.859375 -11.25 C 16.046875 -10.78125 16.960938 -10.140625 17.609375 -9.328125 C 18.265625 -8.515625 18.59375 -7.414062 18.59375 -6.03125 C 18.59375 -4.96875 18.382812 -4.046875 17.96875 -3.265625 C 17.5625 -2.492188 16.988281 -1.847656 16.25 -1.328125 C 15.507812 -0.804688 14.628906 -0.421875 13.609375 -0.171875 C 12.597656 0.0664062 11.488281 0.1875 10.28125 0.1875 C 9.09375 0.1875 7.953125 0.0664062 6.859375 -0.171875 C 5.765625 -0.421875 4.726562 -0.789062 3.75 -1.28125 C 2.78125 -1.769531 1.875 -2.390625 1.03125 -3.140625 L 2.171875 -5 C 2.585938 -4.5625 3.082031 -4.15625 3.65625 -3.78125 C 4.226562 -3.40625 4.863281 -3.0625 5.5625 -2.75 C 6.269531 -2.445312 7.023438 -2.210938 7.828125 -2.046875 C 8.640625 -1.890625 9.476562 -1.8125 10.34375 -1.8125 C 12.1875 -1.8125 13.617188 -2.144531 14.640625 -2.8125 C 15.671875 -3.488281 16.1875 -4.488281 16.1875 -5.8125 C 16.1875 -6.757812 15.925781 -7.519531 15.40625 -8.09375 C 14.882812 -8.664062 14.101562 -9.132812 13.0625 -9.5 C 12.03125 -9.875 10.757812 -10.234375 9.25 -10.578125 C 7.644531 -10.941406 6.289062 -11.347656 5.1875 -11.796875 C 4.082031 -12.253906 3.253906 -12.859375 2.703125 -13.609375 C 2.148438 -14.359375 1.875 -15.347656 1.875 -16.578125 C 1.875 -18.003906 2.222656 -19.207031 2.921875 -20.1875 C 3.628906 -21.175781 4.597656 -21.921875 5.828125 -22.421875 C 7.066406 -22.929688 8.488281 -23.1875 10.09375 -23.1875 C 11.101562 -23.1875 12.046875 -23.082031 12.921875 -22.875 C 13.796875 -22.675781 14.609375 -22.378906 15.359375 -21.984375 C 16.109375 -21.597656 16.804688 -21.113281 17.453125 -20.53125 Z M 16.34375 -18.71875 "/></g></g></g></svg>