<svg xmlns="http://www.w3.org/2000/svg" xmlns:xlink="http://www.w3.org/1999/xlink" width="500" zoomAndPan="magnify" viewBox="0 0 375 374.999991" height="500" preserveAspectRatio="xMidYMid meet" version="1.0"><defs><g/></defs><g fill="#f4f3f3" fill-opacity="1"><g transform="translate(3.049656, 62.196588)"><g><path d="M 34.671875 -20.078125 L 23.0625 -59.109375 L 37.875 -59.109375 L 57.65625 0 L 40.234375 0 L 38.03125 -7.71875 L 25.578125 -7.71875 L 29.25 -20.078125 Z M 25.125 -29.46875 L 16.5 0 L 0 0 L 17.875 -53.609375 Z M 25.125 -29.46875 "/></g></g></g><g fill="#ff9100" fill-opacity="1"><g transform="translate(46.499288, 62.196588)"><g><path d="M 35.046875 -44.4375 L 35.046875 -60.625 C 39.679688 -60.375 43.894531 -59.253906 47.6875 -57.265625 C 51.476562 -55.285156 54.644531 -52.640625 57.1875 -49.328125 L 43.984375 -39.015625 C 41.796875 -42.066406 38.816406 -43.875 35.046875 -44.4375 Z M 28.328125 -15.421875 L 28.328125 0.609375 C 23.035156 -0.00390625 18.390625 -1.644531 14.390625 -4.3125 C 10.398438 -6.988281 7.296875 -10.476562 5.078125 -14.78125 C 2.859375 -19.082031 1.75 -23.976562 1.75 -29.46875 C 1.75 -33.445312 2.398438 -37.191406 3.703125 -40.703125 C 5.003906 -44.210938 6.835938 -47.351562 9.203125 -50.125 C 11.566406 -52.90625 14.378906 -55.1875 17.640625 -56.96875 C 20.898438 -58.75 24.460938 -59.894531 28.328125 -60.40625 L 28.328125 -43.828125 C 25.472656 -42.910156 23.128906 -41.175781 21.296875 -38.625 C 19.472656 -36.082031 18.5625 -33.03125 18.5625 -29.46875 C 18.5625 -26.257812 19.472656 -23.367188 21.296875 -20.796875 C 23.128906 -18.234375 25.472656 -16.441406 28.328125 -15.421875 Z M 62.390625 -33.375 L 62.390625 0 L 48.953125 0 L 48.953125 -3.96875 C 46.910156 -2.644531 44.726562 -1.5625 42.40625 -0.71875 C 40.09375 0.113281 37.640625 0.632812 35.046875 0.84375 L 35.046875 -14.734375 C 37.285156 -14.941406 39.078125 -15.347656 40.421875 -15.953125 C 41.773438 -16.566406 42.820312 -17.242188 43.5625 -17.984375 C 44.300781 -18.722656 44.796875 -19.359375 45.046875 -19.890625 C 45.304688 -20.421875 45.4375 -20.6875 45.4375 -20.6875 L 36.8125 -20.6875 L 36.8125 -33.375 Z M 62.390625 -33.375 "/></g></g></g><g fill="#f4f3f3" fill-opacity="1"><g transform="translate(25.134645, 78.797032)"><g><path d="M 2.875 -6.625 L 3.4375 -6.625 L 6.1875 0 L 5.5 0 L 4.640625 -2.078125 L 1.65625 -2.078125 L 0.8125 0 L 0.109375 0 Z M 4.484375 -2.578125 L 3.15625 -5.859375 L 1.796875 -2.578125 Z M 4.484375 -2.578125 "/></g></g></g><g fill="#f4f3f3" fill-opacity="1"><g transform="translate(32.718056, 78.797032)"><g><path d="M 3.484375 0.046875 C 3.046875 0.046875 2.632812 -0.046875 2.25 -0.234375 C 1.875 -0.421875 1.546875 -0.675781 1.265625 -1 C 0.984375 -1.332031 0.765625 -1.695312 0.609375 -2.09375 C 0.460938 -2.488281 0.390625 -2.898438 0.390625 -3.328125 C 0.390625 -3.773438 0.460938 -4.195312 0.609375 -4.59375 C 0.765625 -5 0.976562 -5.351562 1.25 -5.65625 C 1.53125 -5.96875 1.859375 -6.210938 2.234375 -6.390625 C 2.609375 -6.578125 3.015625 -6.671875 3.453125 -6.671875 C 4.109375 -6.671875 4.640625 -6.535156 5.046875 -6.265625 C 5.453125 -6.003906 5.765625 -5.65625 5.984375 -5.21875 L 5.46875 -4.890625 C 5.257812 -5.296875 4.976562 -5.59375 4.625 -5.78125 C 4.269531 -5.976562 3.875 -6.078125 3.4375 -6.078125 C 3.070312 -6.078125 2.738281 -6 2.4375 -5.84375 C 2.144531 -5.6875 1.894531 -5.476562 1.6875 -5.21875 C 1.476562 -4.957031 1.316406 -4.660156 1.203125 -4.328125 C 1.097656 -4.003906 1.046875 -3.664062 1.046875 -3.3125 C 1.046875 -2.9375 1.109375 -2.582031 1.234375 -2.25 C 1.359375 -1.914062 1.535156 -1.617188 1.765625 -1.359375 C 1.992188 -1.109375 2.257812 -0.910156 2.5625 -0.765625 C 2.863281 -0.617188 3.1875 -0.546875 3.53125 -0.546875 C 3.9375 -0.546875 4.316406 -0.644531 4.671875 -0.84375 C 5.035156 -1.039062 5.382812 -1.351562 5.71875 -1.78125 L 5.71875 -1.09375 C 5.09375 -0.332031 4.347656 0.046875 3.484375 0.046875 Z M 5.609375 -2.75 L 4.140625 -2.75 L 4.140625 -3.25 L 6.171875 -3.25 L 6.171875 0 L 5.609375 0 Z M 5.609375 -2.75 "/></g></g></g><g fill="#f4f3f3" fill-opacity="1"><g transform="translate(40.674525, 78.797032)"><g/></g></g><g fill="#f4f3f3" fill-opacity="1"><g transform="translate(44.331481, 78.797032)"><g><path d="M 0.828125 0 L 0.828125 -6.625 L 5.171875 -6.625 L 5.171875 -6.046875 L 1.484375 -6.046875 L 1.484375 -3.609375 L 4.59375 -3.609375 L 4.59375 -3.0625 L 1.484375 -3.0625 L 1.484375 0 Z M 0.828125 0 "/></g></g></g><g fill="#f4f3f3" fill-opacity="1"><g transform="translate(51.10348, 78.797032)"><g><path d="M 0.828125 0 L 0.828125 -6.625 L 1.484375 -6.625 L 1.484375 0 Z M 0.828125 0 "/></g></g></g><g fill="#f4f3f3" fill-opacity="1"><g transform="translate(54.69515, 78.797032)"><g><path d="M 5.53125 -6.046875 L 3.171875 -6.046875 L 3.171875 0 L 2.515625 0 L 2.515625 -6.046875 L 0.15625 -6.046875 L 0.15625 -6.625 L 5.53125 -6.625 Z M 5.53125 -6.046875 "/></g></g></g><g fill="#f4f3f3" fill-opacity="1"><g transform="translate(61.663011, 78.797032)"><g><path d="M 1.484375 -5.421875 L 1.484375 0 L 0.828125 0 L 0.828125 -6.625 L 1.375 -6.625 L 5.71875 -1.09375 L 5.71875 -6.609375 L 6.375 -6.609375 L 6.375 0 L 5.765625 0 Z M 1.484375 -5.421875 "/></g></g></g><g fill="#f4f3f3" fill-opacity="1"><g transform="translate(70.141766, 78.797032)"><g><path d="M 5.28125 -0.578125 L 5.28125 0 L 0.828125 0 L 0.828125 -6.625 L 5.203125 -6.625 L 5.203125 -6.046875 L 1.484375 -6.046875 L 1.484375 -3.65625 L 4.71875 -3.65625 L 4.71875 -3.109375 L 1.484375 -3.109375 L 1.484375 -0.578125 Z M 5.28125 -0.578125 "/></g></g></g><g fill="#f4f3f3" fill-opacity="1"><g transform="translate(77.100297, 78.797032)"><g><path d="M 4.703125 -5.375 C 4.609375 -5.488281 4.5 -5.585938 4.375 -5.671875 C 4.25 -5.753906 4.109375 -5.828125 3.953125 -5.890625 C 3.796875 -5.953125 3.628906 -6 3.453125 -6.03125 C 3.273438 -6.070312 3.085938 -6.09375 2.890625 -6.09375 C 2.316406 -6.09375 1.894531 -5.976562 1.625 -5.75 C 1.351562 -5.53125 1.21875 -5.234375 1.21875 -4.859375 C 1.21875 -4.597656 1.28125 -4.390625 1.40625 -4.234375 C 1.53125 -4.085938 1.726562 -3.96875 2 -3.875 C 2.28125 -3.78125 2.628906 -3.6875 3.046875 -3.59375 C 3.523438 -3.488281 3.929688 -3.367188 4.265625 -3.234375 C 4.609375 -3.097656 4.875 -2.910156 5.0625 -2.671875 C 5.25 -2.441406 5.34375 -2.128906 5.34375 -1.734375 C 5.34375 -1.429688 5.28125 -1.164062 5.15625 -0.9375 C 5.039062 -0.71875 4.878906 -0.53125 4.671875 -0.375 C 4.460938 -0.226562 4.210938 -0.117188 3.921875 -0.046875 C 3.628906 0.0234375 3.304688 0.0625 2.953125 0.0625 C 2.609375 0.0625 2.28125 0.0234375 1.96875 -0.046875 C 1.65625 -0.117188 1.359375 -0.222656 1.078125 -0.359375 C 0.796875 -0.503906 0.535156 -0.6875 0.296875 -0.90625 L 0.625 -1.4375 C 0.738281 -1.3125 0.878906 -1.191406 1.046875 -1.078125 C 1.210938 -0.972656 1.394531 -0.875 1.59375 -0.78125 C 1.800781 -0.695312 2.019531 -0.628906 2.25 -0.578125 C 2.488281 -0.535156 2.726562 -0.515625 2.96875 -0.515625 C 3.5 -0.515625 3.910156 -0.609375 4.203125 -0.796875 C 4.503906 -0.992188 4.65625 -1.285156 4.65625 -1.671875 C 4.65625 -1.941406 4.578125 -2.160156 4.421875 -2.328125 C 4.273438 -2.492188 4.050781 -2.628906 3.75 -2.734375 C 3.457031 -2.835938 3.09375 -2.941406 2.65625 -3.046875 C 2.195312 -3.148438 1.804688 -3.265625 1.484375 -3.390625 C 1.171875 -3.523438 0.9375 -3.695312 0.78125 -3.90625 C 0.625 -4.125 0.546875 -4.410156 0.546875 -4.765625 C 0.546875 -5.171875 0.644531 -5.515625 0.84375 -5.796875 C 1.039062 -6.085938 1.316406 -6.304688 1.671875 -6.453125 C 2.023438 -6.597656 2.4375 -6.671875 2.90625 -6.671875 C 3.195312 -6.671875 3.46875 -6.640625 3.71875 -6.578125 C 3.96875 -6.523438 4.195312 -6.441406 4.40625 -6.328125 C 4.625 -6.210938 4.828125 -6.070312 5.015625 -5.90625 Z M 4.703125 -5.375 "/></g></g></g><g fill="#f4f3f3" fill-opacity="1"><g transform="translate(84.04018, 78.797032)"><g><path d="M 4.703125 -5.375 C 4.609375 -5.488281 4.5 -5.585938 4.375 -5.671875 C 4.25 -5.753906 4.109375 -5.828125 3.953125 -5.890625 C 3.796875 -5.953125 3.628906 -6 3.453125 -6.03125 C 3.273438 -6.070312 3.085938 -6.09375 2.890625 -6.09375 C 2.316406 -6.09375 1.894531 -5.976562 1.625 -5.75 C 1.351562 -5.53125 1.21875 -5.234375 1.21875 -4.859375 C 1.21875 -4.597656 1.28125 -4.390625 1.40625 -4.234375 C 1.53125 -4.085938 1.726562 -3.96875 2 -3.875 C 2.28125 -3.78125 2.628906 -3.6875 3.046875 -3.59375 C 3.523438 -3.488281 3.929688 -3.367188 4.265625 -3.234375 C 4.609375 -3.097656 4.875 -2.910156 5.0625 -2.671875 C 5.25 -2.441406 5.34375 -2.128906 5.34375 -1.734375 C 5.34375 -1.429688 5.28125 -1.164062 5.15625 -0.9375 C 5.039062 -0.71875 4.878906 -0.53125 4.671875 -0.375 C 4.460938 -0.226562 4.210938 -0.117188 3.921875 -0.046875 C 3.628906 0.0234375 3.304688 0.0625 2.953125 0.0625 C 2.609375 0.0625 2.28125 0.0234375 1.96875 -0.046875 C 1.65625 -0.117188 1.359375 -0.222656 1.078125 -0.359375 C 0.796875 -0.503906 0.535156 -0.6875 0.296875 -0.90625 L 0.625 -1.4375 C 0.738281 -1.3125 0.878906 -1.191406 1.046875 -1.078125 C 1.210938 -0.972656 1.394531 -0.875 1.59375 -0.78125 C 1.800781 -0.695312 2.019531 -0.628906 2.25 -0.578125 C 2.488281 -0.535156 2.726562 -0.515625 2.96875 -0.515625 C 3.5 -0.515625 3.910156 -0.609375 4.203125 -0.796875 C 4.503906 -0.992188 4.65625 -1.285156 4.65625 -1.671875 C 4.65625 -1.941406 4.578125 -2.160156 4.421875 -2.328125 C 4.273438 -2.492188 4.050781 -2.628906 3.75 -2.734375 C 3.457031 -2.835938 3.09375 -2.941406 2.65625 -3.046875 C 2.195312 -3.148438 1.804688 -3.265625 1.484375 -3.390625 C 1.171875 -3.523438 0.9375 -3.695312 0.78125 -3.90625 C 0.625 -4.125 0.546875 -4.410156 0.546875 -4.765625 C 0.546875 -5.171875 0.644531 -5.515625 0.84375 -5.796875 C 1.039062 -6.085938 1.316406 -6.304688 1.671875 -6.453125 C 2.023438 -6.597656 2.4375 -6.671875 2.90625 -6.671875 C 3.195312 -6.671875 3.46875 -6.640625 3.71875 -6.578125 C 3.96875 -6.523438 4.195312 -6.441406 4.40625 -6.328125 C 4.625 -6.210938 4.828125 -6.070312 5.015625 -5.90625 Z M 4.703125 -5.375 "/></g></g></g></svg>